<?xml version="1.0" encoding="UTF-8"?>
<!DOCTYPE svg PUBLIC "-//W3C//DTD SVG 1.1//EN" "http://www.w3.org/Graphics/SVG/1.1/DTD/svg11.dtd">
<svg xmlns="http://www.w3.org/2000/svg" xml:space="preserve" width="220mm" height="43mm" 
 version="1.1" viewBox="0 0 22013 4335" xmlns:xlink="http://www.w3.org/1999/xlink">
 <defs>
 <g id="layer" >
  <path d="M683 1160c0,600 0,1197 0,1795 10,170 121,320 321,320l357 0c185,0 300,-154 331,-297"/>
  <line x1="327" y1="1720" x2="1504" y2= "1720" />
  <polyline points="2986,1723 3493,1723 3493,3275 "/>
  <line x1="2968" y1="3275" x2="4009" y2= "3275" />
  <polygon points="3493,851 3303,851 3303,1031 3493,1031 "/>
  <line x1="5316" y1="1723" x2="5316" y2= "3275" />
  <path d="M5316 2154c230,-160 598,-431 712,-431l236 0c165,0 310,107 327,350l52 1203"/>
  <polyline points="7794,1723 7794,1957 8295,3130 8627,3129 "/>
  <polyline points="9123,1723 9123,1997 8253,3984 7794,3983 "/>
  <path d="M11609 1010l-639 0c-119,0 -217,88 -283,204l-375 764c-42,95 -28,305 12,367l373 750c56,102 172,182 289,182l628 0"/>
  <polyline points="12763,1010 12763,3275 14102,3275 "/>
  <path d="M16152 1168c-110,-216 -367,-223 -488,4l-371 741c-60,131 -75,302 -10,467l407 760c82,175 344,198 448,-8l394 -749c37,-80 85,-304 -10,-493l-370 -722z"/>
  <path d="M17728 1010l0 1970c0,123 126,295 329,295l664 0c175,0 333,-124 333,-329l0 -1937"/>
  <path d="M20214 1010l657 0c111,0 202,95 251,184l363 726c64,128 78,284 8,430l-384 766c-58,105 -145,160 -238,160l-679 0"/>
  <line x1="20548" y1="1010" x2="20548" y2= "3275" />
 </g>
  </defs>
  <use xlink:href="#layer" class="light3 fil str str3"/>
  <use xlink:href="#layer" class="light2 fil str str2"/>
  <use xlink:href="#layer" class="light1 fil str str1"/>
  <use xlink:href="#layer" class="light0 fil str str0"/>
  <style type="text/css">
		.light0 {
		  animation: slidein0 5s infinite alternate ;
		}
    .light1 {
		  animation: slidein1 5s infinite alternate ;
		}
    .light2 {
		  animation: slidein2 5s infinite alternate ;
		}
    .light3 {
		  animation: slidein3 5s infinite alternate ;
		}
    .str {
			stroke:white;
			stroke-linecap:round;
			stroke-linejoin:round;
			stroke-miterlimit:23      
    }
    .str0 {
			stroke-width:200;
		}
    .str1 {
			stroke-width:400;
		}
    .str2 {
			stroke-width:700;
		}
    .str3 {
			stroke-width:1100;
		}
    .fil {
			fill:none
		}
		@keyframes slidein0 {
		  from      {opacity: 0;}
		  to  		  {opacity: 1;}
		}
    @keyframes slidein1 {
		  from      {opacity: 0;}
		  to  		  {opacity: 0.8;}
		}
    @keyframes slidein2 {
		  from      {opacity: 0;}
		  to  		  {opacity: 0.3;}
		}
    @keyframes slidein3 {
		  from      {opacity: 0;}
		  to  		  {opacity: 0.1;}
		}
  </style>
</svg>
